# Blender v2.71 (sub 0) OBJ File: 'bone1.blend'
# www.blender.org
mtllib bone1.mtl
o Icosphere.001
v -0.146000 0.556953 0.302405
v -0.190844 0.627648 0.130405
v 0.020344 0.761414 0.217085
v -0.156163 0.728236 0.478202
v -0.015304 0.769352 0.391805
v -0.333876 0.730341 0.391088
v -0.348516 0.654009 0.239813
v -0.142173 0.811405 0.090516
v -0.186855 0.898322 0.408091
v -0.128984 0.902293 0.236655
v -0.326574 0.881029 0.206060
v 0.067288 0.149935 -0.188943
v -0.198638 0.833987 0.262170
v 0.112360 0.155134 -0.170257
v -0.153566 0.839185 0.280857
v 0.136250 0.137629 -0.129630
v -0.129676 0.821680 0.321484
v 0.124963 0.107674 -0.090861
v -0.140963 0.791725 0.360253
v 0.085112 0.082816 -0.076660
v -0.180814 0.766868 0.374453
v 0.040040 0.077618 -0.095346
v -0.225886 0.761669 0.355767
v 0.016150 0.095123 -0.135974
v -0.249776 0.779174 0.315140
v 0.027437 0.125078 -0.174743
v -0.238489 0.809129 0.276371
v 0.108790 0.014197 0.041212
v 0.171526 0.048063 -0.074097
v 0.005733 0.014720 -0.228018
v 0.192006 0.235009 -0.224321
v -0.133984 0.151540 0.027810
v 0.084779 0.220490 0.108263
v -0.090798 0.220490 -0.210766
v 0.226826 0.264474 -0.071221
v 0.015913 0.358221 -0.055868
vn 0.798900 -0.571100 0.188900
vn -0.343500 -0.896700 -0.279000
vn -0.576200 -0.065400 -0.814700
vn 0.522700 -0.310800 -0.793900
vn -0.541100 -0.039000 -0.840000
vn 0.386800 0.410200 0.825900
vn -0.721100 0.654200 -0.228300
vn 0.540900 -0.586600 0.602800
vn -0.494800 -0.755600 0.429200
vn -0.326700 -0.686300 0.649800
vn 0.602400 -0.670700 -0.432700
vn -0.419900 0.280100 0.863300
vn -0.993700 0.102600 0.044400
vn 0.599400 0.769500 0.220200
vn 0.689700 0.716000 0.108200
vn -0.178000 0.766400 0.617200
vn -0.009800 0.849500 -0.527500
vn 0.572500 0.672100 -0.469600
vn 0.824000 0.498300 -0.269800
vn 0.924300 0.120500 0.362200
vn 0.495100 -0.336000 0.801300
vn -0.246900 -0.598600 0.762100
vn -0.824000 -0.498300 0.269800
vn -0.495100 0.336000 -0.801300
vn -0.308700 0.794000 0.523700
vn -0.924300 -0.120500 -0.362200
vn 0.308700 -0.794000 -0.523600
vn 0.298200 -0.947400 -0.116000
vn 0.881600 -0.230700 0.411900
vn -0.234500 -0.325100 0.916200
vn 0.792100 -0.103300 0.601600
vn 0.382900 0.780500 0.494300
vn -0.435900 0.591000 0.678800
vn -0.804200 0.593800 0.026000
vn -0.491500 -0.850700 0.186500
vn 0.633100 -0.525800 -0.568000
vn 0.955200 -0.241800 -0.170700
vn -0.879800 -0.389900 -0.271900
vn 0.246900 0.598600 -0.762100
vn -0.050900 0.059700 -0.996900
vn -0.069900 0.768900 -0.635500
vn 0.376800 0.889900 -0.257000
vn -0.308700 0.794000 0.523600
vn 0.308700 -0.794000 -0.523700
g Icosphere.001_Icosphere.001_Material.001
usemtl Material.001
s off
f 5//1 1//1 3//1
f 1//2 7//2 2//2
f 2//3 7//3 11//3
f 3//4 2//4 8//4
f 2//5 11//5 8//5
f 4//6 5//6 9//6
f 6//7 9//7 10//7
f 1//8 5//8 4//8
f 7//9 1//9 6//9
f 1//10 4//10 6//10
f 1//11 2//11 3//11
f 6//12 4//12 9//12
f 7//13 6//13 11//13
f 9//14 5//14 10//14
f 5//15 3//15 10//15
f 11//16 6//16 10//16
f 10//17 8//17 11//17
f 3//18 8//18 10//18
f 14//19 15//19 17//19
f 16//20 17//20 19//20
f 18//21 19//21 21//21
f 21//22 23//22 22//22
f 23//23 25//23 24//23
f 26//24 27//24 13//24
f 23//25 21//25 19//25
f 24//26 25//26 27//26
f 18//27 24//27 16//27
f 29//28 28//28 30//28
f 28//29 29//29 35//29
f 32//30 28//30 33//30
f 28//31 35//31 33//31
f 33//32 35//32 36//32
f 32//33 33//33 36//33
f 34//34 32//34 36//34
f 30//35 28//35 32//35
f 29//36 30//36 31//36
f 35//37 29//37 31//37
f 30//38 32//38 34//38
f 13//39 15//39 14//39
f 30//40 34//40 31//40
f 31//41 34//41 36//41
f 35//42 31//42 36//42
f 16//19 14//19 17//19
f 18//20 16//20 19//20
f 20//21 18//21 21//21
f 20//22 21//22 22//22
f 22//23 23//23 24//23
f 12//24 26//24 13//24
f 13//43 27//43 15//43
f 25//25 17//25 27//25
f 26//44 12//44 14//44
f 17//43 23//43 19//43
f 27//25 17//25 15//25
f 26//26 24//26 27//26
f 17//25 25//25 23//25
f 12//39 13//39 14//39
f 18//27 20//27 22//27
f 18//44 22//44 24//44
f 24//27 26//27 16//27
f 26//44 14//44 16//44
