# Blender v2.71 (sub 0) OBJ File: 'fence1.blend'
# www.blender.org
mtllib fence1.mtl
o Cube.001_Cube.002
v -2.014078 0.902598 0.019144
v -2.013570 0.899937 -0.063130
v -2.011360 0.531827 -0.051210
v -2.011868 0.534488 0.031063
v 2.114025 0.928184 0.043813
v 2.114533 0.925523 -0.038460
v 2.116743 0.557413 -0.026540
v 2.116235 0.560074 0.055733
v -1.996581 1.486863 0.003619
v -1.996203 1.484308 -0.078658
v -1.986092 1.116315 -0.067183
v -1.986470 1.118871 0.015094
v 2.130076 1.600722 0.019047
v 2.130454 1.598167 -0.063230
v 2.140564 1.230174 -0.051755
v 2.140186 1.232730 0.030522
v 1.347599 -0.011835 0.057754
v 1.347599 -0.011835 -0.109016
v 1.711611 -0.011835 -0.109016
v 1.711611 -0.011835 0.057754
v 1.347599 1.890573 0.057754
v 1.347599 1.890573 -0.109016
v 1.711611 1.890573 -0.109016
v 1.711611 1.890573 0.057754
v -1.609207 0.017065 0.061320
v -1.609207 0.017065 -0.105450
v -1.245196 0.017065 -0.105450
v -1.245196 0.017065 0.061320
v -1.609207 1.919474 0.061320
v -1.609207 1.919474 -0.105450
v -1.245196 1.919474 -0.105450
v -1.245196 1.919474 0.061320
v -1.416906 2.108889 0.055634
v -1.416906 2.108889 -0.099767
v 1.529605 2.099004 0.050920
v 1.529605 2.099004 -0.098959
vn -0.006000 0.999500 -0.032400
vn 0.006200 -0.032300 -0.999500
vn 0.006000 -0.999500 0.032400
vn -0.006200 0.032300 0.999500
vn -1.000000 -0.006200 -0.006000
vn 1.000000 0.006200 0.006000
vn -0.027500 0.999100 -0.031200
vn 0.004600 -0.031000 -0.999500
vn 0.027500 -0.999100 0.031200
vn -0.004600 0.031000 0.999500
vn -0.999600 -0.027600 -0.003700
vn 0.999600 0.027600 0.003700
vn -1.000000 0.000000 0.000000
vn 0.000000 0.000000 -1.000000
vn 1.000000 0.000000 0.000000
vn 0.000000 0.000000 1.000000
vn 0.000000 -1.000000 0.000000
vn -0.701700 0.712400 0.000000
vn 0.740900 0.671600 0.000000
vn 0.000000 0.030000 0.999500
vn 0.000000 0.030000 -0.999600
vn -0.753200 0.657700 0.000000
vn 0.753200 0.657700 0.000000
vn 0.000000 0.048200 -0.998800
vn 0.000000 0.032800 0.999500
g Cube.001_Cube.002_Material.001
usemtl Material.001
s off
f 6//1 2//1 1//1
f 7//2 3//2 2//2
f 8//3 4//3 3//3
f 5//4 1//4 4//4
f 2//5 3//5 4//5
f 8//6 7//6 6//6
f 14//7 10//7 9//7
f 15//8 11//8 10//8
f 16//9 12//9 11//9
f 13//10 9//10 12//10
f 9//11 10//11 11//11
f 16//12 15//12 14//12
f 22//13 18//13 17//13
f 23//14 19//14 18//14
f 24//15 20//15 19//15
f 21//16 17//16 20//16
f 18//17 19//17 20//17
f 29//13 30//13 26//13
f 31//14 27//14 26//14
f 31//15 32//15 28//15
f 29//16 25//16 28//16
f 26//17 27//17 28//17
f 34//18 30//18 29//18
f 34//19 33//19 32//19
f 33//20 29//20 32//20
f 34//21 31//21 30//21
f 35//22 36//22 22//22
f 35//23 24//23 23//23
f 36//24 23//24 22//24
f 35//25 21//25 24//25
f 5//1 6//1 1//1
f 6//2 7//2 2//2
f 7//3 8//3 3//3
f 8//4 5//4 4//4
f 1//5 2//5 4//5
f 5//6 8//6 6//6
f 13//7 14//7 9//7
f 14//8 15//8 10//8
f 15//9 16//9 11//9
f 16//10 13//10 12//10
f 12//11 9//11 11//11
f 13//12 16//12 14//12
f 21//13 22//13 17//13
f 22//14 23//14 18//14
f 23//15 24//15 19//15
f 24//16 21//16 20//16
f 17//17 18//17 20//17
f 25//13 29//13 26//13
f 30//14 31//14 26//14
f 27//15 31//15 28//15
f 32//16 29//16 28//16
f 25//17 26//17 28//17
f 33//18 34//18 29//18
f 31//19 34//19 32//19
f 21//22 35//22 22//22
f 36//23 35//23 23//23
