# Blender v2.71 (sub 0) OBJ File: 'grass1.blend'
# www.blender.org
mtllib grass1.mtl
o Plane.003
v -0.136690 0.095384 -0.152110
v -0.144936 0.093292 -0.129993
v -0.061321 -0.041165 -0.100148
v -0.071770 -0.046173 -0.079217
v -0.267343 0.163911 -0.225312
v -0.272534 0.163763 -0.202597
v -0.418685 0.142589 -0.285081
v -0.032554 0.117807 0.108939
v -0.009100 0.117594 0.105554
v -0.004516 -0.040110 0.072852
v 0.019326 -0.042107 0.072847
v -0.044101 0.235186 0.223889
v -0.021821 0.235574 0.217078
v -0.022270 0.276578 0.381183
v 0.055971 0.113364 -0.166861
v 0.035991 0.104575 -0.176087
v 0.048431 -0.035292 -0.097070
v 0.030585 -0.046380 -0.108516
v 0.107345 0.206500 -0.292603
v 0.086074 0.199247 -0.298755
v 0.175674 0.211056 -0.441740
v -0.210803 0.133821 -0.068100
v -0.202800 0.134587 -0.039589
v -0.105523 -0.041566 -0.048361
v -0.100802 -0.044189 -0.018945
v -0.391792 0.231381 -0.057461
v -0.380151 0.234147 -0.030904
v -0.589459 0.222182 -0.003338
v 0.060201 0.156247 0.136301
v 0.085901 0.153828 0.121768
v 0.053442 -0.037880 0.069196
v 0.080816 -0.042981 0.058279
v 0.114784 0.288334 0.284497
v 0.137704 0.287223 0.266556
v 0.215467 0.317239 0.460888
v 0.174980 0.283310 0.063113
v 0.188571 0.277048 0.020028
v 0.103343 -0.021079 0.014818
v 0.122715 -0.031183 -0.025717
v 0.387874 0.498173 0.157938
v 0.394710 0.493712 0.113840
v 0.685751 0.555259 0.246126
v 0.149356 0.225402 -0.074322
v 0.128550 0.218964 -0.103459
v 0.089770 -0.017916 -0.043790
v 0.073431 -0.027397 -0.075286
v 0.307975 0.397357 -0.170189
v 0.283250 0.392392 -0.195555
v 0.506009 0.442511 -0.319211
v -0.025766 0.296771 -0.202100
v -0.065874 0.288016 -0.178290
v 0.008912 -0.021068 -0.123544
v -0.033759 -0.033762 -0.105828
v -0.134146 0.522125 -0.417184
v -0.169788 0.515273 -0.387854
v -0.306557 0.582157 -0.690472
v -0.291998 0.338903 0.135734
v -0.238902 0.342437 0.171497
v -0.089937 -0.045652 0.040225
v -0.040985 -0.049144 0.082433
v -0.576352 0.562926 0.395565
v -0.519988 0.570371 0.422806
v -0.827077 0.560998 0.761999
vn 0.776300 0.531000 0.339700
vn 0.434300 0.894600 0.105100
vn -0.007400 0.975700 0.219000
vn -0.139100 0.174900 -0.974700
vn -0.231300 0.655000 -0.719300
vn -0.054600 0.989900 -0.131000
vn -0.517800 0.364900 0.773800
vn -0.402100 0.796900 0.450800
vn -0.066700 0.995000 -0.074400
vn 0.852800 0.457500 -0.251700
vn 0.458000 0.840900 -0.288300
vn -0.130400 0.991200 -0.023300
vn -0.451500 0.284500 -0.845700
vn -0.390200 0.742500 -0.544500
vn -0.151600 0.980800 -0.122700
vn -0.914300 0.243400 -0.323800
vn -0.673600 0.717600 -0.177000
vn -0.211600 0.977200 0.014900
vn -0.814100 0.242500 0.527700
vn -0.562900 0.718800 0.408000
vn -0.293500 0.950100 -0.105400
vn 0.456700 0.238600 0.857000
vn 0.356100 0.716300 0.600100
vn 0.487500 0.420400 -0.765300
vn 0.161900 0.814300 -0.557500
vn -0.090700 0.966100 -0.241600
vn -0.100500 0.992900 -0.063500
vn 0.682200 0.556900 0.473800
vn 0.354600 0.909200 0.218200
vn 0.018700 0.225900 -0.974000
vn -0.097100 0.691500 -0.715800
vn -0.650000 0.349700 0.674700
vn -0.511300 0.777200 0.366800
vn 0.858300 0.504800 -0.092700
vn 0.461900 0.873600 -0.153100
vn -0.298600 0.321100 -0.898800
vn -0.260000 0.766400 -0.587400
vn -0.840000 0.272200 -0.469300
vn -0.608700 0.735000 -0.298800
vn -0.886300 0.264700 0.380100
vn -0.621500 0.730700 0.282400
vn 0.303400 0.259700 0.916800
vn 0.226000 0.727300 0.648100
vn 0.594200 0.473700 -0.650000
vn 0.252200 0.852100 -0.458600
g Plane.003_Plane.003_Material.001
usemtl Material.001
s off
f 1//1 2//1 4//1
f 5//2 6//2 2//2
f 56//3 55//3 54//3
f 8//4 9//4 11//4
f 12//5 13//5 9//5
f 35//6 34//6 33//6
f 15//7 16//7 18//7
f 19//8 20//8 16//8
f 28//9 27//9 26//9
f 22//10 23//10 25//10
f 26//11 27//11 23//11
f 7//12 6//12 5//12
f 29//13 30//13 32//13
f 33//14 34//14 30//14
f 42//15 41//15 40//15
f 36//16 37//16 39//16
f 40//17 41//17 37//17
f 49//18 48//18 47//18
f 43//19 44//19 46//19
f 47//20 48//20 44//20
f 21//21 20//21 19//21
f 50//22 51//22 53//22
f 54//23 55//23 51//23
f 57//24 58//24 60//24
f 61//25 62//25 58//25
f 14//26 13//26 12//26
f 63//27 62//27 61//27
f 3//28 1//28 4//28
f 1//29 5//29 2//29
f 10//30 8//30 11//30
f 8//31 12//31 9//31
f 17//32 15//32 18//32
f 15//33 19//33 16//33
f 24//34 22//34 25//34
f 22//35 26//35 23//35
f 31//36 29//36 32//36
f 29//37 33//37 30//37
f 38//38 36//38 39//38
f 36//39 40//39 37//39
f 45//40 43//40 46//40
f 43//41 47//41 44//41
f 52//42 50//42 53//42
f 50//43 54//43 51//43
f 59//44 57//44 60//44
f 57//45 61//45 58//45
