# Blender v2.71 (sub 0) OBJ File: 'tree2.blend'
# www.blender.org
mtllib tree2.mtl
o Cylinder
v 1.466086 3.603143 1.733317
v 1.123939 3.077113 0.901375
v 0.440036 3.292128 1.398258
v 1.963981 3.850172 0.905104
v 1.120196 4.066816 2.087476
v -0.058134 3.807673 0.901374
v 0.758658 3.807671 0.030784
v 0.119111 4.629437 0.754685
v 1.597439 4.422432 0.296788
v 1.501592 5.009768 1.267542
v 0.342166 4.640657 1.722993
v 0.852689 4.904756 0.332254
v -0.774647 3.458508 -0.210089
v -0.450277 2.947144 -1.454224
v -1.989701 3.661822 -1.247668
v 0.016306 3.664483 -2.242862
v 0.695280 4.001356 -1.113440
v -0.257340 4.435854 0.045073
v -1.277353 3.943402 -2.534558
v -1.901507 4.785117 -0.613606
v 0.195432 4.781741 -2.278692
v -0.601960 5.270010 -0.210089
v 0.357153 5.270009 -1.032391
v -1.395235 5.627263 -1.506155
v -0.601960 5.270010 -2.352489
v 0.062589 3.316755 -0.052407
v 0.743424 3.827531 0.816410
v 0.138894 3.304302 -0.102876
v 0.788533 3.820170 0.786574
v 0.188872 3.227328 -0.092775
v 0.818078 3.774666 0.792545
v 0.162544 3.162807 -0.032206
v 0.802514 3.736523 0.828351
v 0.086238 3.175260 0.018263
v 0.757405 3.743885 0.858187
v 0.036260 3.252234 0.008163
v 0.727860 3.789389 0.852216
v 0.100465 3.119371 -0.222286
v -0.500632 4.400771 -1.273979
v 0.164744 3.211807 -0.149881
v -0.462632 4.455416 -1.231176
v 0.102508 3.272080 -0.047839
v -0.499424 4.491047 -1.170852
v -0.024006 3.239917 -0.018201
v -0.574214 4.472033 -1.153331
v -0.088285 3.147480 -0.090605
v -0.612213 4.417388 -1.196134
v -0.026050 3.087207 -0.192648
v -0.575422 4.381757 -1.256458
v 0.043942 0.013937 -0.341149
v 0.043942 3.314137 -0.238674
v 0.261011 0.013937 -0.215824
v 0.172265 3.314137 -0.164587
v 0.261011 0.013937 0.034826
v 0.172265 3.314137 -0.016412
v 0.043942 0.013937 0.160151
v 0.043942 3.314137 0.057675
v -0.173128 0.013937 0.034826
v -0.084381 3.314137 -0.016412
v -0.173128 0.013937 -0.215824
v -0.084381 3.314137 -0.164587
vn -0.133200 0.896500 -0.422600
vn 0.656200 0.337500 -0.675000
vn 0.804000 -0.547000 -0.233200
vn 0.162400 -0.872500 0.460900
vn -0.774800 0.571000 0.271500
vn 0.543200 0.446000 0.711300
vn -0.626900 -0.313500 0.713200
vn 0.805000 -0.102000 -0.584400
vn -0.543200 -0.446000 -0.711300
vn 0.813800 0.556400 0.167700
vn 0.000000 0.677600 0.735500
vn -0.822600 0.140400 0.551100
vn -0.017600 -0.639200 -0.768800
vn -0.326600 0.713100 -0.620400
vn -0.831400 -0.518000 -0.201100
vn 0.499800 0.026900 -0.865700
vn 0.326600 -0.713100 0.620400
vn 0.999600 0.026900 -0.000000
vn 0.499800 0.026900 0.865700
vn -0.499800 0.026900 0.865700
vn -0.499800 0.026900 -0.865700
vn 0.000000 1.000000 0.000000
vn -0.999600 0.026900 0.000000
vn 0.000000 -1.000000 0.000000
vn 0.543200 0.446100 0.711300
vn -0.543200 -0.446100 -0.711300
vn 0.665200 -0.723700 0.184000
vn 0.541400 -0.424600 -0.725700
vn 0.815300 0.190400 0.546900
vn -0.059800 -0.633700 0.771300
vn 0.095900 -0.858700 0.503500
vn -0.471500 -0.762900 -0.442400
vn -0.495400 -0.801500 -0.335000
vn 0.504700 -0.545200 -0.669300
vn -0.787200 -0.197800 0.584100
vn -0.548200 -0.233200 0.803100
vn -0.728800 0.035100 -0.683800
vn 0.118500 0.253600 -0.960000
vn 0.817500 0.152400 0.555500
vn -0.946000 0.242400 0.215100
vn -0.553900 0.264400 -0.789500
vn 0.899200 0.408000 -0.158000
vn 0.102600 0.628700 0.770800
vn -0.273000 0.958500 0.081800
vn -0.318900 0.945700 0.062500
vn 0.479400 0.771000 -0.419200
vn -0.376200 -0.887400 0.266600
vn -0.379000 -0.040700 0.924500
vn 0.866400 -0.154100 -0.474900
vn -0.433400 0.765200 0.476200
vn 0.535400 -0.722900 0.436700
vn 0.695200 -0.686500 -0.213200
vn -0.428500 -0.803600 -0.413000
vn -0.006800 -0.737700 -0.675100
vn 0.581200 -0.479300 0.657600
vn -0.643300 -0.337400 0.687200
vn -0.874500 0.206800 -0.438800
vn 0.133100 0.067900 -0.988800
vn 0.206300 -0.064400 -0.976400
vn 0.581900 0.448000 0.678700
vn 0.791600 0.173600 0.585800
vn -0.341800 0.142900 0.928900
vn -0.924000 0.240400 -0.297300
vn -0.581800 0.393900 -0.711600
vn 0.937800 0.264300 -0.225200
vn 0.150800 0.972800 0.175900
vn 0.242100 0.954200 -0.175900
vn 0.509800 0.776500 -0.370400
g Cylinder_Cylinder_trunk
usemtl trunk
s off
f 26//1 27//1 29//1
f 30//2 28//2 29//2
f 32//3 30//3 31//3
f 32//4 33//4 35//4
f 36//5 37//5 27//5
f 31//6 29//6 33//6
f 34//7 35//7 37//7
f 39//8 41//8 40//8
f 36//9 26//9 34//9
f 42//10 40//10 41//10
f 42//11 43//11 45//11
f 45//12 47//12 46//12
f 38//13 48//13 49//13
f 49//14 47//14 45//14
f 48//15 46//15 47//15
f 51//16 53//16 52//16
f 48//17 38//17 46//17
f 53//18 55//18 54//18
f 55//19 57//19 56//19
f 57//20 59//20 58//20
f 61//21 51//21 50//21
f 53//22 51//22 61//22
f 59//23 61//23 60//23
f 52//24 54//24 56//24
f 28//1 26//1 29//1
f 31//2 30//2 29//2
f 33//3 32//3 31//3
f 34//4 32//4 35//4
f 26//5 36//5 27//5
f 27//6 35//6 29//6
f 27//25 37//25 35//25
f 36//7 34//7 37//7
f 29//6 35//6 33//6
f 38//8 39//8 40//8
f 30//9 32//9 34//9
f 44//11 42//11 45//11
f 43//10 42//10 41//10
f 26//26 30//26 34//26
f 26//9 28//9 30//9
f 44//12 45//12 46//12
f 39//13 38//13 49//13
f 39//14 49//14 41//14
f 49//14 43//14 41//14
f 43//14 49//14 45//14
f 49//15 48//15 47//15
f 50//16 51//16 52//16
f 40//17 44//17 38//17
f 40//17 42//17 44//17
f 52//18 53//18 54//18
f 38//17 44//17 46//17
f 54//19 55//19 56//19
f 56//20 57//20 58//20
f 60//21 61//21 50//21
f 60//24 50//24 52//24
f 59//22 57//22 61//22
f 58//23 59//23 60//23
f 57//22 53//22 61//22
f 57//22 55//22 53//22
f 60//24 52//24 58//24
f 52//24 56//24 58//24
g Cylinder_Cylinder_Leaves
usemtl Leaves
f 1//27 2//27 4//27
f 4//28 7//28 9//28
f 1//29 4//29 5//29
f 3//30 1//30 5//30
f 3//31 2//31 1//31
f 2//32 6//32 7//32
f 2//33 3//33 6//33
f 2//34 7//34 4//34
f 6//35 3//35 11//35
f 3//36 5//36 11//36
f 7//37 6//37 8//37
f 9//38 7//38 12//38
f 5//39 4//39 10//39
f 6//40 11//40 8//40
f 7//41 8//41 12//41
f 4//42 9//42 10//42
f 11//43 5//43 10//43
f 12//44 11//44 10//44
f 12//45 8//45 11//45
f 10//46 9//46 12//46
f 14//47 13//47 15//47
f 13//48 18//48 20//48
f 16//49 21//49 17//49
f 20//50 22//50 24//50
f 14//51 17//51 13//51
f 17//52 14//52 16//52
f 14//53 15//53 19//53
f 14//54 19//54 16//54
f 13//55 17//55 18//55
f 15//56 13//56 20//56
f 19//57 15//57 24//57
f 21//58 19//58 25//58
f 21//59 16//59 19//59
f 18//60 23//60 22//60
f 18//61 17//61 23//61
f 20//62 18//62 22//62
f 15//63 20//63 24//63
f 19//64 24//64 25//64
f 17//65 21//65 23//65
f 22//66 23//66 24//66
f 23//67 25//67 24//67
f 23//68 21//68 25//68
